HIERARCHY
ROOT Hips
{
 OFFSET 0.000000 0.000000 0.000000
 CHANNELS 6 Xposition Yposition Zposition Yrotation Xrotation Zrotation
 JOINT Chest
 {
  OFFSET 0.000000 9.585900 0.002600
  CHANNELS 3 Yrotation Xrotation Zrotation
  JOINT Chest2
  {
   OFFSET 0.000000 9.601200 -0.005300
   CHANNELS 3 Yrotation Xrotation Zrotation
   JOINT Chest3
   {
    OFFSET 0.000000 9.561800 0.000000
    CHANNELS 3 Yrotation Xrotation Zrotation
    JOINT Chest4
    {
     OFFSET 0.000000 9.552100 0.000000
     CHANNELS 3 Yrotation Xrotation Zrotation
     JOINT Neck
     {
      OFFSET 0.000000 14.453000 0.000000
      CHANNELS 3 Yrotation Xrotation Zrotation
      JOINT Head
      {
       OFFSET 0.000000 8.936500 -0.011300
       CHANNELS 3 Yrotation Xrotation Zrotation
       End Site
       {
        OFFSET 0.000000 17.073600 -0.006000
       }
      }
     }
     JOINT RightCollar
     {
      OFFSET -2.921100 9.558500 0.000000
      CHANNELS 3 Yrotation Xrotation Zrotation
      JOINT RightShoulder
      {
       OFFSET -13.519700 0.000000 0.000000
       CHANNELS 3 Yrotation Xrotation Zrotation
       JOINT RightElbow
       {
        OFFSET 0.000000 -29.696600 0.000000
        CHANNELS 3 Yrotation Xrotation Zrotation
        JOINT RightWrist
        {
         OFFSET 0.000000 -24.004700 0.000000
         CHANNELS 3 Yrotation Xrotation Zrotation
         End Site
         {
          OFFSET 0.000000 -17.728500 0.000000
         }
        }
       }
      }
     }
     JOINT LeftCollar
     {
      OFFSET 2.921100 9.558500 0.000000
      CHANNELS 3 Yrotation Xrotation Zrotation
      JOINT LeftShoulder
      {
       OFFSET 13.519700 0.000000 0.000000
       CHANNELS 3 Yrotation Xrotation Zrotation
       JOINT LeftElbow
       {
        OFFSET 0.000000 -29.696600 0.000000
        CHANNELS 3 Yrotation Xrotation Zrotation
        JOINT LeftWrist
        {
         OFFSET 0.000000 -24.004700 0.000000
         CHANNELS 3 Yrotation Xrotation Zrotation
         End Site
         {
          OFFSET 0.000000 -17.728500 0.000000
         }
        }
       }
      }
     }
    }
   }
  }
 }
 JOINT RightHip
 {
  OFFSET -7.771700 -0.012900 -0.001300
  CHANNELS 3 Yrotation Xrotation Zrotation
  JOINT RightKnee
  {
   OFFSET 0.000000 -40.869800 0.001200
   CHANNELS 3 Yrotation Xrotation Zrotation
   JOINT RightAnkle
   {
    OFFSET 0.000000 -39.717900 0.002100
    CHANNELS 3 Yrotation Xrotation Zrotation
    JOINT RightToe
    {
     OFFSET 0.000000 -4.965400 11.033500
     CHANNELS 3 Yrotation Xrotation Zrotation
     End Site
     {
      OFFSET 0.000000 -1.423100 5.872300
     }
    }
   }
  }
 }
 JOINT LeftHip
 {
  OFFSET 7.771700 -0.012900 -0.001300
  CHANNELS 3 Yrotation Xrotation Zrotation
  JOINT LeftKnee
  {
   OFFSET 0.000000 -40.869800 0.001200
   CHANNELS 3 Yrotation Xrotation Zrotation
   JOINT LeftAnkle
   {
    OFFSET 0.000000 -39.717900 0.002100
    CHANNELS 3 Yrotation Xrotation Zrotation
    JOINT LeftToe
    {
     OFFSET 0.000000 -4.965400 11.033500
     CHANNELS 3 Yrotation Xrotation Zrotation
     End Site
     {
      OFFSET 0.000000 -1.423100 5.872300
     }
    }
   }
  }
 }
}
MOTION
Frames: 9
Frame Time: 0.008333
-84.707958 61.989045 18.110641 173.477996 -49.766580 -0.880691 4.557105 26.611455 1.687583 0.645400 4.491971 0.235789 1.036778 7.123278 0.413422 3.416467 21.605268 1.674758 0.270440 15.181752 1.341579 0.017231 -7.614320 2.401896 4.197224 4.574799 2.380595 -15.427207 -7.859865 -11.124901 -116.754303 -58.639703 150.626251 1.714732 6.378065 -12.949477 -7.255110 1.040335 0.759028 7.273636 -5.664039 13.150571 131.029450 -65.585513 -156.457886 12.555090 -1.047841 19.023085 3.428702 -17.550655 -3.233393 -1.331837 60.556700 -4.536368 2.926446 -4.846021 10.947280 0.184010 -0.465200 0.094488 -3.585409 -14.101107 5.437380 28.578212 76.048376 29.976104 0.691979 -11.093275 -5.169192 0.264600 0.730057 0.119604
-84.709870 61.988686 18.110921 173.483994 -49.762172 -0.881555 4.550895 26.608337 1.677345 0.646028 4.492552 0.227499 1.037293 7.125336 0.413231 3.419683 21.603168 1.678280 0.274389 15.181922 1.350108 0.013426 -7.595434 2.421868 4.197965 4.565345 2.380246 -15.369648 -7.767735 -11.125132 -117.380483 -58.858060 151.018428 1.828191 6.532822 -13.142386 -7.260729 1.036325 0.755948 7.269365 -5.691767 13.168558 131.208489 -65.620866 -156.561439 12.551411 -1.065879 19.057346 3.428750 -17.553942 -3.237592 -1.325652 60.555429 -4.530559 2.917644 -4.844709 10.946650 0.185964 -0.464309 0.095364 -3.591912 -14.105514 5.431608 28.570577 76.047432 29.969343 0.696923 -11.091424 -5.174859 0.265646 0.730227 0.121997
-84.711573 61.988852 18.111283 173.484304 -49.761538 -0.880135 4.548935 26.608114 1.668900 0.648599 4.492878 0.222155 1.034699 7.126046 0.408373 3.421196 21.603908 1.670658 0.281836 15.190101 1.364555 0.022025 -7.580373 2.446293 4.205905 4.547477 2.378176 -15.350319 -7.715467 -11.112160 -117.943397 -59.108352 151.379044 1.949808 6.689865 -13.312549 -7.273607 1.028432 0.755323 7.263424 -5.739271 13.193626 131.397036 -65.679555 -156.653771 12.542482 -1.082975 19.093166 3.430259 -17.553685 -3.239989 -1.320992 60.553039 -4.528109 2.920608 -4.842708 10.947487 0.187519 -0.462737 0.092793 -3.596862 -14.105378 5.428277 28.572697 76.045720 29.969295 0.701372 -11.089408 -5.176915 0.260115 0.728426 0.120730
-84.713133 61.989258 18.111965 173.484982 -49.762104 -0.880224 4.557042 26.608945 1.647247 0.643677 4.492384 0.243365 1.040698 7.127258 0.380111 3.428471 21.603385 1.679862 0.286920 15.214345 1.372269 0.024846 -7.572536 2.480413 4.204861 4.535455 2.382945 -15.343363 -7.691936 -11.096072 -118.496498 -59.385917 151.749665 2.070348 6.842595 -13.468805 -7.295863 1.021089 0.760572 7.272536 -5.766587 13.212612 131.654254 -65.727760 -156.819150 12.525916 -1.099202 19.134625 3.430654 -17.551871 -3.239006 -1.323857 60.549674 -4.533560 2.919963 -4.839289 10.949038 0.189514 -0.462842 0.092838 -3.601808 -14.103463 5.425727 28.577591 76.043238 29.972224 0.706453 -11.088651 -5.178049 0.256855 0.727809 0.118008
-84.713373 61.989973 18.112953 173.486670 -49.765094 -0.888647 4.564099 26.610867 1.647371 0.644270 4.492237 0.241838 1.040056 7.127739 0.385177 3.428583 21.601801 1.666496 0.294659 15.230168 1.386907 0.030741 -7.551953 2.503248 4.213591 4.523403 2.370966 -15.295280 -7.590685 -11.087855 -119.219100 -59.641089 152.239626 2.182183 6.986128 -13.609515 -7.339045 1.013661 0.753657 7.302230 -5.799346 13.236583 131.926691 -65.782520 -156.989805 12.504767 -1.112532 19.171495 3.428769 -17.547679 -3.228432 -1.328849 60.545028 -4.541346 2.918513 -4.834315 10.953640 0.191358 -0.464440 0.091104 -3.607489 -14.099103 5.429551 28.568217 76.044690 29.968676 0.710713 -11.091504 -5.187320 0.261916 0.729605 0.120233
-84.714315 61.990703 18.114247 173.496904 -49.767850 -0.898535 4.562834 26.612964 1.642539 0.645557 4.493530 0.239017 1.039153 7.127741 0.390779 3.430251 21.609327 1.639637 0.306675 15.237633 1.416524 0.038508 -7.530785 2.522325 4.215845 4.510294 2.401129 -15.249895 -7.527459 -11.105197 -119.899235 -59.912530 152.700164 2.288382 7.119924 -13.731810 -7.358887 1.008288 0.776550 7.316791 -5.833093 13.246992 132.226671 -65.828837 -157.186455 12.479744 -1.124881 19.203044 3.420212 -17.541950 -3.227502 -1.322303 60.539291 -4.534348 2.917969 -4.832353 10.954023 0.192576 -0.463105 0.089331 -3.616154 -14.095751 5.429948 28.569581 76.041465 29.972036 0.710692 -11.089724 -5.191445 0.257599 0.730136 0.120927
-84.715391 61.991260 18.115967 173.503699 -49.769771 -0.903814 4.563301 26.615130 1.635496 0.649775 4.495118 0.229092 1.040156 7.130090 0.391746 3.435852 21.610186 1.644007 0.313436 15.248446 1.428026 0.043942 -7.510024 2.542134 4.209714 4.496823 2.402382 -15.211223 -7.467145 -11.111712 -120.517239 -60.183408 153.117840 2.401915 7.247960 -13.837118 -7.379453 1.003046 0.783706 7.334219 -5.866734 13.255718 132.543965 -65.874030 -157.399264 12.449865 -1.139943 19.233160 3.415663 -17.538047 -3.229521 -1.321476 60.534648 -4.530115 2.917777 -4.831341 10.951916 0.189885 -0.460920 0.088597 -3.622286 -14.094639 5.428342 28.578826 76.038762 29.981868 0.712403 -11.085412 -5.195048 0.261896 0.728002 0.121270
-84.716290 61.991823 18.117979 173.509265 -49.772121 -0.907725 4.564168 26.617932 1.628727 0.650614 4.496294 0.228297 1.042519 7.132904 0.389466 3.438220 21.610413 1.644998 0.321051 15.259436 1.434873 0.070842 -7.452591 2.568764 4.203700 4.481762 2.400009 -15.173177 -7.401329 -11.121827 -121.069197 -60.439984 153.485625 2.533786 7.374546 -13.928253 -7.396237 0.998199 0.784836 7.352420 -5.900482 13.264183 132.877968 -65.918899 -157.625656 12.418615 -1.158384 19.260382 3.410122 -17.533766 -3.228966 -1.322868 60.529525 -4.531938 2.915316 -4.829692 10.950041 0.203964 -0.458876 0.090727 -3.627699 -14.093301 5.426295 28.583939 76.036391 29.988806 0.709550 -11.080120 -5.196831 0.256845 0.724344 0.119660
-84.717495 61.991988 18.120523 173.520081 -49.771655 -0.912555 4.558062 26.616866 1.617890 0.651007 4.497100 0.227615 1.042522 7.133956 0.395979 3.438652 21.610890 1.643929 0.327383 15.271804 1.433446 0.088203 -7.432627 2.581245 4.201023 4.471725 2.389668 -15.138068 -7.334197 -11.136323 -121.555334 -60.685310 153.802142 2.679422 7.499681 -14.015000 -7.403233 0.996628 0.782068 7.361410 -5.917577 13.268677 133.246691 -65.949631 -157.880074 12.384911 -1.178063 19.289942 3.392533 -17.533496 -3.230888 -1.312241 60.525325 -4.529740 2.916101 -4.826176 10.948603 0.196610 -0.460177 0.089569 -3.634762 -14.095296 5.419721 28.574213 76.033747 29.984937 0.707311 -11.074272 -5.201319 0.254862 0.721055 0.118997
